<svg viewBox="0 0 256 256" xmlns="http://www.w3.org/2000/svg">
  <defs>
    <linearGradient id="jg1" x1="98%" y1="0%" x2="59%" y2="41%">
      <stop offset="18%" stop-color="#0052CC"/>
      <stop offset="100%" stop-color="#2684FF"/>
    </linearGradient>
    <linearGradient id="jg2" x1="101%" y1="0%" x2="55%" y2="45%">
      <stop offset="18%" stop-color="#0052CC"/>
      <stop offset="100%" stop-color="#2684FF"/>
    </linearGradient>
  </defs>
  <path d="M244.658 0H121.707c0 14.72 5.847 28.837 16.256 39.246 10.409 10.409 24.526 16.256 39.246 16.256h22.649v21.867c.02 30.625 24.841 55.447 55.466 55.467V10.667C255.324 4.776 250.549 0 244.658 0z" fill="#2684FF"/>
  <path d="M183.822 61.262H60.871c.02 30.625 24.842 55.447 55.467 55.467h22.649v21.938c.039 30.625 24.877 55.43 55.502 55.43V71.929c0-5.891-4.776-10.667-10.667-10.667z" fill="url(#jg1)"/>
  <path d="M122.951 122.489H0c0 30.653 24.849 55.502 55.502 55.502h22.72v21.868c.02 30.455 24.998 55.265 55.396 55.465V133.156c0-5.891-4.776-10.667-10.667-10.667z" fill="url(#jg2)"/>
</svg>
