<svg xmlns="http://www.w3.org/2000/svg" viewBox="0 0 124 124">
  <path d="M26.4 78.9c0 7.1-5.8 12.9-12.9 12.9S.6 86 .6 78.9c0-7.1 5.8-12.9 12.9-12.9h12.9v12.9zM32.9 78.9c0-7.1 5.8-12.9 12.9-12.9s12.9 5.8 12.9 12.9v32.3c0 7.1-5.8 12.9-12.9 12.9s-12.9-5.8-12.9-12.9V78.9z" fill="#E01E5A"/>
  <path d="M45.8 26.4c-7.1 0-12.9-5.8-12.9-12.9S38.7.6 45.8.6s12.9 5.8 12.9 12.9v12.9H45.8zM45.8 32.9c7.1 0 12.9 5.8 12.9 12.9s-5.8 12.9-12.9 12.9H13.5C6.4 58.7.6 52.9.6 45.8s5.8-12.9 12.9-12.9h32.3z" fill="#36C5F0"/>
  <path d="M98.1 45.8c0-7.1 5.8-12.9 12.9-12.9s12.9 5.8 12.9 12.9-5.8 12.9-12.9 12.9H98.1V45.8zM91.6 45.8c0 7.1-5.8 12.9-12.9 12.9s-12.9-5.8-12.9-12.9V13.5C65.8 6.4 71.6.6 78.7.6s12.9 5.8 12.9 12.9v32.3z" fill="#2EB67D"/>
  <path d="M78.7 98.1c7.1 0 12.9 5.8 12.9 12.9s-5.8 12.9-12.9 12.9-12.9-5.8-12.9-12.9V98.1h12.9zM78.7 91.6c-7.1 0-12.9-5.8-12.9-12.9s5.8-12.9 12.9-12.9h32.3c7.1 0 12.9 5.8 12.9 12.9s-5.8 12.9-12.9 12.9H78.7z" fill="#ECB22E"/>
</svg>
