<svg width="15" height="14" viewBox="0 0 15 14" fill="none" xmlns="http://www.w3.org/2000/svg">
<path d="M13.5525 4.76099C13.8452 4.46824 14.3201 4.46852 14.613 4.76099C14.9059 5.05388 14.9059 5.52864 14.613 5.82153L9.61304 10.8215C9.32014 11.1144 8.84538 11.1144 8.55249 10.8215L7.55249 9.82153C7.26003 9.52861 7.25974 9.05374 7.55249 8.76099C7.84524 8.46824 8.32011 8.46852 8.61304 8.76099L9.08276 9.23071L13.5525 4.76099ZM10.8865 2.09497C11.1794 1.80224 11.6542 1.80213 11.947 2.09497C12.2396 2.38783 12.2397 2.86268 11.947 3.15552L4.61304 10.4885C4.32015 10.7812 3.84533 10.7813 3.55249 10.4885L0.219482 7.15552C-0.0733565 6.86268 -0.073248 6.38788 0.219482 6.09497C0.512376 5.80208 0.987136 5.80208 1.28003 6.09497L4.08276 8.89771L10.8865 2.09497Z" fill="#244325"/>
</svg>
