<svg width="20" height="20" viewBox="0 0 20 20" fill="none" xmlns="http://www.w3.org/2000/svg">
<rect width="20" height="20" rx="10" fill="#E9F7E7"/>
<g clip-path="url(#clip0_3_2037)">
<path d="M5.293 12.7071C5.10545 12.8946 5.00006 13.1489 5 13.4141V14.5001C5 14.6327 5.05268 14.7599 5.14645 14.8536C5.24021 14.9474 5.36739 15.0001 5.5 15.0001H7C7.13261 15.0001 7.25979 14.9474 7.35355 14.8536C7.44732 14.7599 7.5 14.6327 7.5 14.5001V14.0001C7.5 13.8675 7.55268 13.7403 7.64645 13.6465C7.74021 13.5528 7.86739 13.5001 8 13.5001H8.5C8.63261 13.5001 8.75979 13.4474 8.85355 13.3536C8.94732 13.2599 9 13.1327 9 13.0001V12.5001C9 12.3675 9.05268 12.2403 9.14645 12.1465C9.24021 12.0528 9.36739 12.0001 9.5 12.0001H9.586C9.85119 12 10.1055 11.8946 10.293 11.7071L10.7 11.3001C11.3949 11.5422 12.1514 11.5412 12.8457 11.2975C13.5401 11.0537 14.1311 10.5815 14.5222 9.95814C14.9133 9.33479 15.0812 8.59717 14.9986 7.86595C14.9159 7.13473 14.5876 6.45321 14.0672 5.93287C13.5469 5.41252 12.8653 5.08417 12.1341 5.00152C11.4029 4.91888 10.6653 5.08683 10.0419 5.4779C9.41858 5.86897 8.9464 6.46002 8.70262 7.15434C8.45885 7.84866 8.45793 8.60516 8.7 9.30008L5.293 12.7071Z" stroke="#244325" stroke-linecap="round" stroke-linejoin="round"/>
<path d="M12.25 8C12.3881 8 12.5 7.88807 12.5 7.75C12.5 7.61193 12.3881 7.5 12.25 7.5C12.1119 7.5 12 7.61193 12 7.75C12 7.88807 12.1119 8 12.25 8Z" fill="#244325" stroke="#244325" stroke-linecap="round" stroke-linejoin="round"/>
</g>
<defs>
<clipPath id="clip0_3_2037">
<rect width="12" height="12" fill="white" transform="translate(4 4)"/>
</clipPath>
</defs>
</svg>
