<svg width="15" height="15" viewBox="0 0 15 15" fill="none" xmlns="http://www.w3.org/2000/svg">
<path d="M5.55353 5.5526C5.84645 5.26003 6.32129 5.25981 6.61407 5.5526C6.90664 5.8454 6.90657 6.3203 6.61407 6.61314L5.47736 7.74986L6.41681 8.68932L7.55353 7.5526C7.84645 7.26003 8.32129 7.25981 8.61407 7.5526C8.90664 7.8454 8.90657 8.3203 8.61407 8.61314L7.47736 9.74986L7.94708 10.2196C8.08759 10.3602 8.16681 10.5511 8.16681 10.7499C8.16675 10.9487 8.08768 11.1395 7.94708 11.2801L6.41388 12.8133C6.19576 13.032 5.93643 13.2056 5.65118 13.3241C5.36565 13.4426 5.05898 13.5037 4.74982 13.5038C4.44088 13.5037 4.13478 13.4425 3.84943 13.3241C3.56429 13.2057 3.30481 13.0319 3.08673 12.8133L2.74982 12.4764L1.28009 13.9462C0.987197 14.239 0.512437 14.239 0.219543 13.9462C-0.0730806 13.6532 -0.07326 13.1784 0.219543 12.8856L1.68927 11.4159L1.35333 11.0799L1.35431 11.079C1.13575 10.8609 0.961023 10.6024 0.84259 10.3172C0.724159 10.0319 0.662975 9.72582 0.662903 9.41685C0.662903 9.10764 0.724041 8.80107 0.84259 8.51549C0.9612 8.22984 1.13523 7.97014 1.35431 7.75182L2.88654 6.21959L2.94318 6.16783C3.23775 5.92755 3.67249 5.945 3.94708 6.21959L4.41681 6.68932L5.55353 5.5526ZM2.4129 8.81432C2.33368 8.89327 2.27123 8.98739 2.22833 9.09068C2.18546 9.19397 2.1629 9.30502 2.1629 9.41685C2.16298 9.52846 2.18556 9.63896 2.22833 9.74205C2.27121 9.84522 2.33378 9.93954 2.4129 10.0184L4.14825 11.7538C4.22716 11.8329 4.32144 11.8955 4.42462 11.9383C4.5277 11.9811 4.63823 12.0037 4.74982 12.0038C4.86161 12.0037 4.97274 11.9812 5.07599 11.9383C5.17924 11.8954 5.27343 11.833 5.35236 11.7538L6.35626 10.7499L3.41681 7.81041L2.4129 8.81432ZM10.8865 0.219589C11.1794 -0.0731412 11.6542 -0.0732497 11.9471 0.219589C12.2397 0.512446 12.2397 0.987303 11.9471 1.28014L10.5604 2.66685H12.7498C13.0532 2.66685 13.3271 2.84949 13.4432 3.12975C13.559 3.40988 13.4945 3.73276 13.2801 3.94713L10.6131 6.61314C10.3202 6.90586 9.84539 6.90593 9.55255 6.61314C9.26004 6.32028 9.25993 5.84539 9.55255 5.5526L10.9393 4.16685H8.74982C8.44664 4.16681 8.17261 3.98399 8.05646 3.70396C7.94043 3.42385 8.00531 3.10108 8.21954 2.88658L10.8865 0.219589Z" fill="#202020"/>
</svg>
