<svg xmlns="http://www.w3.org/2000/svg" viewBox="0 0 96 96" width="96" height="96">
  <defs>
    <linearGradient id="azure-gradient-1" x1="58.972%" x2="37.191%" y1="7.412%" y2="103.762%">
      <stop offset="0%" stop-color="#114A8B"/>
      <stop offset="100%" stop-color="#0669BC"/>
    </linearGradient>
    <linearGradient id="azure-gradient-2" x1="59.719%" x2="52.691%" y1="52.313%" y2="54.864%">
      <stop offset="0%" stop-opacity=".3"/>
      <stop offset="7.1%" stop-opacity=".2"/>
      <stop offset="32.1%" stop-opacity=".1"/>
      <stop offset="62.3%" stop-opacity=".05"/>
      <stop offset="100%" stop-opacity="0"/>
    </linearGradient>
    <linearGradient id="azure-gradient-3" x1="37.279%" x2="62.473%" y1="4.6%" y2="99.979%">
      <stop offset="0%" stop-color="#3CCBF4"/>
      <stop offset="100%" stop-color="#2892DF"/>
    </linearGradient>
  </defs>
  <path fill="url(#azure-gradient-1)" d="M33.338 6.544h26.038l-27.03 80.087a4.152 4.152 0 0 1-3.933 2.824H8.149a4.145 4.145 0 0 1-3.928-5.47L29.404 9.368a4.152 4.152 0 0 1 3.934-2.825z"/>
  <path fill="#0078D4" d="M71.175 60.261H41.29a1.911 1.911 0 0 0-1.305 3.309l26.532 24.764a4.171 4.171 0 0 0 2.846 1.121h23.586z"/>
  <path fill="url(#azure-gradient-2)" d="M33.338 6.544a4.118 4.118 0 0 0-3.943 2.879L4.252 83.917a4.14 4.14 0 0 0 3.908 5.538h20.787a4.443 4.443 0 0 0 3.41-2.9l5.014-14.777 17.91 16.705a4.237 4.237 0 0 0 2.666.972H81.24L71.024 60.261l-29.781.007L59.47 6.544z"/>
  <path fill="url(#azure-gradient-3)" d="M66.595 9.364a4.145 4.145 0 0 0-3.928-2.82H33.648a4.146 4.146 0 0 1 3.928 2.82l25.184 74.62a4.146 4.146 0 0 1-3.928 5.472h29.02a4.146 4.146 0 0 0 3.927-5.472z"/>
</svg>
