<svg width="40" height="40" viewBox="0 0 40 40" fill="none" xmlns="http://www.w3.org/2000/svg">
<g clip-path="url(#clip0_2_152)">
<path d="M36.643 9.34952C36.2832 9.17385 36.1273 9.5096 35.9177 9.68102C35.8454 9.73627 35.7845 9.80852 35.7236 9.87369C35.1966 10.4361 34.5818 10.8044 33.7785 10.7605C32.6041 10.6954 31.6011 11.0637 30.7143 11.9619C30.5258 10.854 29.8997 10.1939 28.9477 9.76885C28.449 9.54785 27.9447 9.32827 27.5948 8.84802C27.3511 8.5066 27.2845 8.12552 27.1627 7.75152C27.0848 7.52485 27.0068 7.29394 26.7476 7.25569C26.4643 7.21177 26.3538 7.44835 26.2433 7.64669C25.7998 8.45702 25.6284 9.34952 25.6454 10.2534C25.6837 12.2877 26.5422 13.9084 28.2493 15.0601C28.4433 15.1919 28.4929 15.325 28.432 15.5177C28.3158 15.9144 28.177 16.2997 28.0552 16.6978C27.9773 16.9514 27.8611 17.0052 27.5891 16.8961C26.67 16.5011 25.8352 15.9337 25.1298 15.2244C23.9157 14.0514 22.8192 12.7566 21.4507 11.7423C21.1336 11.508 20.808 11.2854 20.4746 11.075C19.0792 9.71927 20.6588 8.60577 21.0243 8.47402C21.4068 8.33519 21.156 7.86202 19.9207 7.86769C18.6853 7.87335 17.5548 8.2856 16.1141 8.83669C15.9 8.91873 15.6797 8.98363 15.4553 9.03077C14.109 8.77709 12.732 8.72838 11.3711 8.88627C8.70067 9.18377 6.56859 10.4474 5.00034 12.6022C3.11617 15.1919 2.67276 18.1357 3.21534 21.2042C3.78626 24.4399 5.43809 27.1188 7.97534 29.2126C10.6075 31.3844 13.6378 32.4483 17.0958 32.2443C19.1953 32.1239 21.5343 31.8419 24.1707 29.6093C24.8365 29.9408 25.5335 30.0725 26.6923 30.1717C27.5848 30.2553 28.4433 30.1292 29.1078 29.9904C30.149 29.7694 30.0768 28.8046 29.7013 28.6289C26.6484 27.2066 27.3185 27.786 26.7079 27.3171C28.2606 25.4811 30.5981 23.5743 31.5133 17.3962C31.5841 16.9046 31.5232 16.5958 31.5133 16.1991C31.5076 15.9583 31.5628 15.8634 31.8391 15.8364C32.6056 15.7569 33.3491 15.5283 34.0278 15.1635C36.0055 14.0826 36.8045 12.3089 36.9929 10.1811C37.0213 9.85527 36.9873 9.52094 36.643 9.34952ZM19.4064 28.5C16.447 26.1739 15.0119 25.4074 14.4198 25.44C13.8644 25.474 13.965 26.1073 14.0868 26.5209C14.2143 26.9289 14.3801 27.2094 14.6124 27.5679C14.7739 27.8044 14.8844 28.1572 14.4523 28.4221C13.4989 29.0114 11.8428 28.2238 11.7649 28.1855C9.83684 27.0494 8.22325 25.5505 7.0885 23.5006C5.992 21.5272 5.35451 19.4107 5.24967 17.1511C5.22134 16.6043 5.38142 16.4116 5.92542 16.3124C6.63958 16.1758 7.37131 16.1571 8.09151 16.2572C11.1118 16.6992 13.6817 18.0493 15.8378 20.187C17.0675 21.4054 17.9983 22.8603 18.9573 24.2826C19.9773 25.7928 21.0738 27.2321 22.4707 28.4108C22.9637 28.8244 23.3561 29.1389 23.7329 29.3699C22.5968 29.4974 20.7013 29.5257 19.4064 28.5ZM20.8231 19.3767C20.8228 19.3063 20.8397 19.2369 20.8723 19.1746C20.9049 19.1122 20.9521 19.0587 21.01 19.0186C21.0679 18.9786 21.1346 18.9533 21.2045 18.9448C21.2744 18.9364 21.3452 18.945 21.411 18.9701C21.4948 19.0002 21.5672 19.0556 21.6179 19.1288C21.6687 19.2019 21.6954 19.2891 21.6943 19.3781C21.6945 19.4356 21.6833 19.4926 21.6612 19.5458C21.6392 19.5989 21.6068 19.6471 21.5659 19.6876C21.525 19.7281 21.4765 19.76 21.4231 19.7815C21.3698 19.8031 21.3127 19.8138 21.2552 19.813C21.1981 19.8132 21.1415 19.802 21.0888 19.7801C21.0361 19.7582 20.9883 19.7259 20.9482 19.6853C20.9081 19.6447 20.8765 19.5965 20.8553 19.5435C20.834 19.4905 20.8221 19.4338 20.8231 19.3767ZM25.2289 21.6377C24.9456 21.7524 24.6637 21.8516 24.3931 21.8644C23.986 21.8785 23.5866 21.7514 23.2626 21.5045C22.8744 21.1787 22.5968 20.9974 22.4806 20.4307C22.4405 20.1538 22.4482 19.872 22.5033 19.5977C22.6024 19.1344 22.4919 18.8369 22.1647 18.5678C21.8998 18.3468 21.5612 18.2859 21.19 18.2859C21.0629 18.2785 20.9395 18.2406 20.8302 18.1754C20.6743 18.0989 20.5468 17.9062 20.6687 17.6682C20.7083 17.5917 20.8953 17.4047 20.9407 17.3707C21.445 17.0845 22.0273 17.178 22.5642 17.3934C23.0628 17.5974 23.4397 17.9714 23.9823 18.5012C24.5362 19.1401 24.6368 19.3172 24.9527 19.796C25.202 20.1714 25.4287 20.5568 25.5831 20.9974C25.678 21.2736 25.5562 21.4989 25.2289 21.6377Z" fill="#4D6BFE"/>
</g>
<defs>
<clipPath id="clip0_2_152">
<rect width="34" height="34" fill="white" transform="translate(3 3)"/>
</clipPath>
</defs>
</svg>
