<svg width="40" height="40" viewBox="0 0 40 40" fill="none" xmlns="http://www.w3.org/2000/svg">
<path fill-rule="evenodd" clip-rule="evenodd" d="M13.8575 3.63495C14.1815 3.76245 14.474 3.97245 14.7395 4.24995C15.182 4.70895 15.5555 5.36595 15.8405 6.14445C16.127 6.92745 16.313 7.79445 16.3835 8.66445C17.3279 8.13016 18.376 7.80483 19.457 7.71045L19.5335 7.70445C20.8385 7.59945 22.1285 7.83495 23.2535 8.41545C23.405 8.49495 23.5535 8.58045 23.699 8.67045C23.774 7.81695 23.957 6.96945 24.239 6.20445C24.524 5.42445 24.8975 4.76895 25.3385 4.30845C25.585 4.04185 25.8864 3.83201 26.222 3.69345C26.6075 3.54345 27.017 3.51645 27.416 3.63045C28.0175 3.80145 28.5335 4.18245 28.94 4.73595C29.312 5.24145 29.591 5.88945 29.7815 6.66645C30.1265 8.06745 30.1865 9.91095 29.954 12.134L30.0335 12.194L30.0725 12.2225C31.208 13.0865 31.9985 14.318 32.417 15.7475C33.0695 17.978 32.741 20.48 31.616 21.8795L31.589 21.911L31.592 21.9155C32.2175 23.0585 32.597 24.266 32.678 25.5155L32.681 25.5605C32.777 27.158 32.381 28.766 31.46 30.3455L31.4495 30.3605L31.4645 30.3965C32.1725 32.132 32.3945 33.8795 32.1215 35.6255L32.1125 35.684C32.0702 35.939 31.9285 36.1669 31.7184 36.3176C31.5084 36.4683 31.2472 36.5296 30.992 36.488C30.8657 36.4682 30.7444 36.4238 30.6353 36.3571C30.5262 36.2905 30.4313 36.2029 30.356 36.0995C30.2808 35.9962 30.2267 35.8789 30.1968 35.7546C30.167 35.6302 30.1619 35.5012 30.182 35.375C30.4325 33.8255 30.197 32.2715 29.462 30.6905C29.3934 30.5436 29.363 30.3818 29.3735 30.22C29.3839 30.0583 29.435 29.9018 29.522 29.765L29.528 29.756C30.434 28.37 30.809 27.011 30.728 25.676C30.659 24.5075 30.2405 23.36 29.528 22.2665C29.3894 22.0539 29.3401 21.7953 29.3906 21.5466C29.4411 21.2979 29.5875 21.0791 29.798 20.9375L29.8115 20.9285C30.176 20.69 30.512 20.081 30.6815 19.2485C30.8685 18.2641 30.8197 17.2493 30.539 16.2875C30.2315 15.2375 29.669 14.3615 28.8815 13.763C27.989 13.082 26.807 12.7535 25.3115 12.848C25.1159 12.8607 24.9211 12.8144 24.7521 12.7152C24.5831 12.616 24.4477 12.4684 24.3635 12.2915C23.8925 11.294 23.2055 10.58 22.349 10.1375C21.5267 9.72705 20.6061 9.55457 19.691 9.63945C17.8235 9.78795 16.1765 10.841 15.686 12.1685C15.6166 12.3553 15.4918 12.5165 15.3283 12.6304C15.1647 12.7443 14.9703 12.8056 14.771 12.806C13.1705 12.809 11.9315 13.184 11.0255 13.8605C10.2425 14.4455 9.7085 15.263 9.4265 16.2425C9.17132 17.1644 9.13638 18.1335 9.3245 19.0715C9.4925 19.9085 9.821 20.6015 10.1975 20.975L10.2095 20.9855C10.5275 21.296 10.595 21.7805 10.373 22.163C9.833 23.096 9.4295 24.4865 9.3635 25.823C9.2885 27.35 9.6425 28.676 10.442 29.627L10.466 29.6555C10.5867 29.7961 10.6643 29.9684 10.6895 30.152C10.7148 30.3355 10.6867 30.5225 10.6085 30.6905C9.7445 32.5445 9.479 34.0685 9.7655 35.2685C9.817 35.518 9.76908 35.7778 9.63196 35.9925C9.49483 36.2072 9.27931 36.36 9.03127 36.4182C8.78323 36.4765 8.52225 36.4356 8.30387 36.3044C8.08549 36.1731 7.92695 35.9618 7.862 35.7155C7.4975 34.1885 7.745 32.4395 8.5715 30.4685L8.5925 30.416L8.5805 30.398C8.17429 29.7979 7.87112 29.1343 7.6835 28.4345L7.676 28.406C7.44832 27.5328 7.35873 26.6293 7.4105 25.7285C7.4765 24.3635 7.8275 22.9655 8.3435 21.8435L8.3615 21.8045L8.3585 21.8015C7.919 21.1745 7.5935 20.372 7.4135 19.484L7.406 19.448C7.158 18.2093 7.20579 16.9296 7.5455 15.713C7.9385 14.3405 8.711 13.1615 9.8495 12.3095C9.9395 12.242 10.034 12.1745 10.1285 12.1115C9.89 9.87195 9.95 8.01645 10.2965 6.60645C10.487 5.82945 10.7675 5.18145 11.1395 4.67595C11.5445 4.12395 12.0605 3.74295 12.662 3.57045C13.061 3.45645 13.472 3.48195 13.8575 3.63345V3.63495ZM20.0315 17.27C21.4355 17.27 22.7315 17.7395 23.7005 18.5525C24.6455 19.343 25.208 20.405 25.208 21.4625C25.208 22.7945 24.599 23.8325 23.5085 24.4955C22.5785 25.058 21.332 25.331 19.904 25.331C18.3905 25.331 17.0975 24.9425 16.1645 24.23C15.239 23.525 14.72 22.535 14.72 21.4625C14.72 20.402 15.317 19.337 16.304 18.5435C17.306 17.738 18.629 17.27 20.0315 17.27ZM20.0315 18.614C18.9909 18.6049 17.9778 18.9485 17.1575 19.589C16.466 20.144 16.0745 20.8415 16.0745 21.464C16.0745 22.106 16.3895 22.7075 16.9895 23.165C17.672 23.6855 18.6755 23.987 19.904 23.987C21.1025 23.987 22.1135 23.7665 22.802 23.348C23.4965 22.928 23.852 22.319 23.852 21.4625C23.852 20.828 23.483 20.1275 22.8275 19.5785C22.1015 18.971 21.1175 18.614 20.0315 18.614ZM21.0245 20.429L21.0305 20.435C21.2105 20.6615 21.173 20.99 20.9465 21.17L20.5085 21.515V22.184C20.5077 22.3329 20.4479 22.4754 20.3422 22.5803C20.2364 22.6852 20.0934 22.7439 19.9445 22.7435C19.7956 22.7439 19.6526 22.6852 19.5468 22.5803C19.4411 22.4754 19.3813 22.3329 19.3805 22.184V21.494L18.974 21.167C18.9204 21.124 18.8758 21.0708 18.8428 21.0105C18.8098 20.9503 18.7891 20.884 18.7819 20.8157C18.7746 20.7474 18.781 20.6783 18.8006 20.6124C18.8202 20.5466 18.8526 20.4852 18.896 20.432C18.9845 20.3242 19.112 20.2557 19.2508 20.2414C19.3895 20.227 19.5283 20.268 19.637 20.3555L19.9595 20.6135L20.2895 20.3525C20.3978 20.2669 20.5353 20.227 20.6726 20.2413C20.8098 20.2556 20.9361 20.3229 21.0245 20.429ZM13.4645 17.5505C14.1815 17.5505 14.765 18.1355 14.765 18.857C14.7654 19.2028 14.6285 19.5347 14.3844 19.7796C14.1402 20.0246 13.8088 20.1627 13.463 20.1635C13.1177 20.1623 12.7869 20.0242 12.5431 19.7796C12.2994 19.535 12.1625 19.2038 12.1625 18.8585C12.1617 18.5126 12.2982 18.1806 12.5421 17.9353C12.7859 17.6901 13.1187 17.5516 13.4645 17.5505ZM26.5235 17.5505C27.2435 17.5505 27.8255 18.1355 27.8255 18.857C27.8259 19.2028 27.689 19.5347 27.4449 19.7796C27.2007 20.0246 26.8693 20.1627 26.5235 20.1635C26.1782 20.1623 25.8474 20.0242 25.6036 19.7796C25.3599 19.535 25.223 19.2038 25.223 18.8585C25.2222 18.5126 25.3587 18.1806 25.6026 17.9353C25.8464 17.6901 26.1777 17.5516 26.5235 17.5505ZM13.16 5.44995L13.1555 5.45295C12.9817 5.52852 12.8333 5.65244 12.728 5.80995L12.7205 5.81895C12.5135 6.10245 12.3335 6.51945 12.1985 7.06695C11.9435 8.10495 11.8745 9.51345 12.0125 11.24C12.6575 11.048 13.361 10.928 14.1185 10.8845L14.1335 10.883L14.162 10.832C14.231 10.709 14.3045 10.5905 14.384 10.4735C14.5685 9.31695 14.417 7.93545 14.0045 6.80745C13.8035 6.26145 13.559 5.83245 13.325 5.58795C13.2767 5.53712 13.2229 5.49184 13.1645 5.45295L13.16 5.44995ZM26.921 5.50995L26.918 5.51145C26.8596 5.55034 26.8058 5.59562 26.7575 5.64645C26.5235 5.89095 26.2775 6.32145 26.078 6.86745C25.643 8.05845 25.4975 9.53145 25.733 10.7255L25.82 10.871L25.832 10.892H25.877C26.6214 10.8921 27.362 10.9992 28.076 11.21C28.205 9.52395 28.133 8.14545 27.884 7.12695C27.749 6.57945 27.569 6.16245 27.3605 5.87895L27.3545 5.86995C27.2494 5.71188 27.101 5.58743 26.927 5.51145H26.921V5.50995Z" fill="black"/>
</svg>
