<svg width="40" height="40" viewBox="0 0 40 40" fill="none" xmlns="http://www.w3.org/2000/svg">
<path fill-rule="evenodd" clip-rule="evenodd" d="M27.1868 5.01074L38.006 11.155V11.2853L27.0759 17.3637L27.1014 14.195L25.8711 14.1501C24.2842 14.1082 23.457 14.1531 22.4725 14.3147C20.8781 14.5767 19.4186 15.1784 17.7567 16.3384L14.511 18.591C14.0854 18.8829 13.7692 19.094 13.492 19.2721L12.7203 19.754L12.1254 20.1043L12.7023 20.4486L13.4965 20.9545C14.2098 21.4245 15.2498 22.1459 17.544 23.7475C19.2073 24.9075 20.6653 25.5092 22.2597 25.7711L22.7093 25.8385C23.7493 25.9747 24.7697 25.9792 26.9426 25.8879L26.9755 22.6563L37.7947 28.8006V28.9308L26.8646 35.0107L26.8856 32.2237L25.9341 32.2567C23.8571 32.3195 22.7318 32.2597 21.2318 32.0142C18.6933 31.5951 16.3467 30.6282 13.9176 28.9323L10.6838 26.6871C10.3119 26.431 9.93465 26.1824 9.55245 25.9417L8.85265 25.5226C8.47471 25.3051 8.09508 25.0906 7.71379 24.879C6.36364 24.1291 2.84965 23.2101 2.006 23.2101V16.8817L2.21579 16.8877C3.06094 16.8772 6.57643 15.9567 7.92358 15.2053L9.44606 14.3372L10.1024 13.9271C10.7438 13.508 11.7088 12.8404 14.1274 11.1535C16.5564 9.45768 18.9016 8.48926 21.4416 8.07166C23.1678 7.78727 24.3996 7.75285 27.1568 7.86511L27.1868 5.01074Z" fill="black"/>
</svg>
