<svg width="40" height="40" viewBox="0 0 40 40" fill="none" xmlns="http://www.w3.org/2000/svg">
<path d="M20.2263 32.7456C19.4477 32.7456 18.7009 33.0549 18.1503 33.6055C17.5998 34.1561 17.2905 34.9028 17.2905 35.6814C17.2905 36.4601 17.5998 37.2068 18.1503 37.7574C18.7009 38.308 19.4477 38.6173 20.2263 38.6173C21.0049 38.6173 21.7517 38.308 22.3023 37.7574C22.8528 37.2068 23.1621 36.4601 23.1621 35.6814C23.1621 34.9028 22.8528 34.1561 22.3023 33.6055C21.7517 33.0549 21.0049 32.7456 20.2263 32.7456ZM20.2263 37.0986C19.941 37.0985 19.6622 37.0137 19.4253 36.8547C19.1884 36.6958 19.0041 36.47 18.8959 36.2061C18.7877 35.9421 18.7604 35.6519 18.8175 35.3725C18.8747 35.093 19.0136 34.8368 19.2168 34.6365C19.4199 34.4362 19.678 34.3009 19.9583 34.2477C20.2386 34.1945 20.5283 34.2258 20.7907 34.3378C21.0531 34.4497 21.2763 34.6372 21.4319 34.8763C21.5874 35.1154 21.6684 35.3954 21.6644 35.6807C21.6644 35.8686 21.627 36.0546 21.5545 36.228C21.482 36.4013 21.3758 36.5585 21.242 36.6905C21.1082 36.8224 20.9495 36.9264 20.7751 36.9965C20.6007 37.0665 20.4142 37.1012 20.2263 37.0986Z" fill="#4285F4"/>
<path fill-rule="evenodd" clip-rule="evenodd" d="M35.2614 23.3262C35.6291 23.3851 35.9626 23.5744 36.2 23.8598C36.4118 24.1708 36.5005 24.5493 36.4489 24.922C36.3973 25.2946 36.209 25.6348 35.9207 25.8765L23.138 35.3116C23.0732 34.7996 22.8746 34.3138 22.5622 33.9031C22.2498 33.4924 21.8347 33.1713 21.3586 32.9722L34.2034 23.5403C34.5186 23.3434 34.8945 23.2673 35.2614 23.3262Z" fill="#669DF6"/>
<path fill-rule="evenodd" clip-rule="evenodd" d="M17.3207 35.2681L4.57359 25.8578C4.27641 25.6281 4.07794 25.2937 4.01857 24.9228C3.9592 24.5519 4.0434 24.1723 4.25403 23.8613C4.48935 23.572 4.82302 23.3794 5.1913 23.3205C5.55958 23.2615 5.93667 23.3403 6.25056 23.5417L19.0954 32.9737C18.6262 33.1698 18.216 33.4843 17.905 33.8865C17.5939 34.2886 17.3925 34.7647 17.3207 35.2681Z" fill="#AECBFA"/>
<path d="M8.24712 8.32652C7.85171 8.32129 7.47396 8.1619 7.19434 7.88228C6.91473 7.60266 6.75533 7.22492 6.75011 6.82951V3.07535C6.72548 2.8628 6.74609 2.64744 6.81058 2.44341C6.87508 2.23939 6.982 2.05132 7.12433 1.89154C7.26666 1.73177 7.44118 1.60391 7.63642 1.51636C7.83167 1.42881 8.04322 1.38354 8.2572 1.38354C8.47117 1.38354 8.68273 1.42881 8.87797 1.51636C9.07322 1.60391 9.24773 1.73177 9.39006 1.89154C9.53239 2.05132 9.63932 2.23939 9.70381 2.44341C9.76831 2.64744 9.78892 2.8628 9.76429 3.07535V6.82951C9.75899 7.22838 9.59681 7.60912 9.31285 7.8893C9.0289 8.16948 8.64603 8.32655 8.24712 8.32652ZM8.20678 21.6041C8.60916 21.6041 8.99506 21.4443 9.27959 21.1598C9.56411 20.8752 9.72396 20.4893 9.72396 20.087C9.72396 19.6846 9.56411 19.2987 9.27959 19.0142C8.99506 18.7296 8.60916 18.5698 8.20678 18.5698C7.8044 18.5698 7.4185 18.7296 7.13398 19.0142C6.84945 19.2987 6.68961 19.6846 6.68961 20.087C6.68961 20.4893 6.84945 20.8752 7.13398 21.1598C7.4185 21.4443 7.8044 21.6041 8.20678 21.6041ZM8.20678 17.1922C8.40602 17.1922 8.60331 17.153 8.78738 17.0767C8.97145 17.0005 9.1387 16.8887 9.27959 16.7479C9.42047 16.607 9.53222 16.4397 9.60847 16.2556C9.68472 16.0716 9.72396 15.8743 9.72396 15.675C9.72396 15.4758 9.68472 15.2785 9.60847 15.0944C9.53222 14.9104 9.42047 14.7431 9.27959 14.6022C9.1387 14.4614 8.97145 14.3496 8.78738 14.2734C8.60331 14.1971 8.40602 14.1579 8.20678 14.1579C7.8044 14.1579 7.4185 14.3177 7.13398 14.6022C6.84945 14.8868 6.68961 15.2727 6.68961 15.675C6.68961 16.0774 6.84945 16.4633 7.13398 16.7479C7.4185 17.0324 7.8044 17.1922 8.20678 17.1922ZM8.20678 12.7586C8.60916 12.7586 8.99506 12.5987 9.27959 12.3142C9.56411 12.0297 9.72396 11.6438 9.72396 11.2414C9.72396 10.839 9.56411 10.4531 9.27959 10.1686C8.99506 9.88409 8.60916 9.72424 8.20678 9.72424C7.8044 9.72424 7.4185 9.88409 7.13398 10.1686C6.84945 10.4531 6.68961 10.839 6.68961 11.2414C6.68961 11.6438 6.84945 12.0297 7.13398 12.3142C7.4185 12.5987 7.8044 12.7586 8.20678 12.7586Z" fill="#AECBFA"/>
<path d="M32.2069 12.72C31.8078 12.7147 31.4268 12.5523 31.1466 12.268C30.8664 11.9837 30.7095 11.6004 30.7099 11.2013V7.4471C30.7099 7.05007 30.8676 6.6693 31.1484 6.38856C31.4291 6.10781 31.8099 5.95009 32.2069 5.95009C32.6039 5.95009 32.9847 6.10781 33.2655 6.38856C33.5462 6.6693 33.7039 7.05007 33.7039 7.4471V11.2013C33.707 11.3997 33.6706 11.5968 33.5967 11.7811C33.5228 11.9653 33.413 12.133 33.2737 12.2743C33.1343 12.4157 32.9683 12.5279 32.7851 12.6044C32.602 12.6809 32.4054 12.7202 32.2069 12.72ZM32.2457 21.6245C32.4449 21.6245 32.6422 21.5852 32.8263 21.509C33.0104 21.4327 33.1776 21.321 33.3185 21.1801C33.4594 21.0392 33.5711 20.872 33.6474 20.6879C33.7236 20.5038 33.7629 20.3065 33.7629 20.1073C33.7629 19.9081 33.7236 19.7108 33.6474 19.5267C33.5711 19.3426 33.4594 19.1754 33.3185 19.0345C33.1776 18.8936 33.0104 18.7819 32.8263 18.7056C32.6422 18.6294 32.4449 18.5901 32.2457 18.5901C31.8433 18.5901 31.4574 18.75 31.1729 19.0345C30.8884 19.319 30.7285 19.7049 30.7285 20.1073C30.7285 20.5097 30.8884 20.8956 31.1729 21.1801C31.4574 21.4646 31.8433 21.6245 32.2457 21.6245ZM32.2457 17.1319C32.6481 17.1319 33.034 16.9721 33.3185 16.6875C33.603 16.403 33.7629 16.0171 33.7629 15.6147C33.7629 15.2123 33.603 14.8264 33.3185 14.5419C33.034 14.2574 32.6481 14.0975 32.2457 14.0975C31.8433 14.0975 31.4574 14.2574 31.1729 14.5419C30.8884 14.8264 30.7285 15.2123 30.7285 15.6147C30.7285 16.0171 30.8884 16.403 31.1729 16.6875C31.4574 16.9721 31.8433 17.1319 32.2457 17.1319ZM32.2457 4.5927C32.4449 4.5927 32.6422 4.55346 32.8263 4.47721C33.0104 4.40097 33.1776 4.28921 33.3185 4.14833C33.4594 4.00745 33.5711 3.8402 33.6474 3.65612C33.7236 3.47205 33.7629 3.27476 33.7629 3.07553C33.7629 2.87629 33.7236 2.679 33.6474 2.49493C33.5711 2.31086 33.4594 2.1436 33.3185 2.00272C33.1776 1.86184 33.0104 1.75008 32.8263 1.67384C32.6422 1.59759 32.4449 1.55835 32.2457 1.55835C31.8433 1.55835 31.4574 1.71819 31.1729 2.00272C30.8884 2.28725 30.7285 2.67315 30.7285 3.07553C30.7285 3.47791 30.8884 3.86381 31.1729 4.14833C31.4574 4.43286 31.8433 4.5927 32.2457 4.5927Z" fill="#4285F4"/>
<path d="M20.2262 26.0766C19.8308 26.0714 19.453 25.912 19.1734 25.6324C18.8938 25.3528 18.7344 24.975 18.7292 24.5796V20.7649C18.772 20.3953 18.9492 20.0542 19.2271 19.8067C19.505 19.5592 19.8641 19.4224 20.2363 19.4224C20.6084 19.4224 20.9676 19.5592 21.2454 19.8067C21.5233 20.0542 21.7005 20.3953 21.7434 20.7649V24.5393C21.7464 24.7403 21.7095 24.94 21.6346 25.1266C21.5597 25.3131 21.4483 25.483 21.3071 25.6261C21.1659 25.7692 20.9976 25.8827 20.812 25.9601C20.6264 26.0374 20.4272 26.0771 20.2262 26.0766ZM20.2262 30.4901C20.6286 30.4901 21.0145 30.3302 21.299 30.0457C21.5835 29.7612 21.7434 29.3753 21.7434 28.9729C21.7434 28.5705 21.5835 28.1846 21.299 27.9001C21.0145 27.6156 20.6286 27.4557 20.2262 27.4557C19.8238 27.4557 19.4379 27.6156 19.1534 27.9001C18.8688 28.1846 18.709 28.5705 18.709 28.9729C18.709 29.3753 18.8688 29.7612 19.1534 30.0457C19.4379 30.3302 19.8238 30.4901 20.2262 30.4901ZM20.2262 17.8904C20.6286 17.8904 21.0145 17.7305 21.299 17.446C21.5835 17.1615 21.7434 16.7756 21.7434 16.3732C21.7434 15.9708 21.5835 15.5849 21.299 15.3004C21.0145 15.0159 20.6286 14.856 20.2262 14.856C19.8238 14.856 19.4379 15.0159 19.1534 15.3004C18.8688 15.5849 18.709 15.9708 18.709 16.3732C18.709 16.7756 18.8688 17.1615 19.1534 17.446C19.4379 17.7305 19.8238 17.8904 20.2262 17.8904ZM20.2262 13.4583C20.6286 13.4583 21.0145 13.2985 21.299 13.0139C21.5835 12.7294 21.7434 12.3435 21.7434 11.9411C21.7434 11.5387 21.5835 11.1528 21.299 10.8683C21.0145 10.5838 20.6286 10.424 20.2262 10.424C19.8238 10.424 19.4379 10.5838 19.1534 10.8683C18.8688 11.1528 18.709 11.5387 18.709 11.9411C18.709 12.3435 18.8688 12.7294 19.1534 13.0139C19.4379 13.2985 19.8238 13.4583 20.2262 13.4583Z" fill="#669DF6"/>
<path d="M26.2159 17.1721C25.8205 17.1669 25.4427 17.0075 25.1631 16.7279C24.8835 16.4482 24.7241 16.0705 24.7189 15.6751V11.9209C24.6806 11.6002 24.7458 11.2755 24.905 10.9944C25.0642 10.7133 25.309 10.4904 25.6038 10.3583C25.8986 10.2261 26.2279 10.1916 26.5437 10.2598C26.8595 10.328 27.1452 10.4953 27.3592 10.7373C27.5014 10.8971 27.6081 11.0852 27.6726 11.2892C27.737 11.4931 27.7576 11.7084 27.7331 11.9209V15.6751C27.7278 16.074 27.5656 16.4547 27.2816 16.7349C26.9977 17.0151 26.6148 17.1721 26.2159 17.1721ZM26.2361 9.00603C26.4353 9.00603 26.6326 8.96679 26.8167 8.89054C27.0007 8.8143 27.168 8.70254 27.3089 8.56166C27.4497 8.42078 27.5615 8.25353 27.6377 8.06945C27.714 7.88538 27.7532 7.68809 27.7532 7.48886C27.7532 7.28962 27.714 7.09233 27.6377 6.90826C27.5615 6.72419 27.4497 6.55693 27.3089 6.41605C27.168 6.27517 27.0007 6.16341 26.8167 6.08717C26.6326 6.01092 26.4353 5.97168 26.2361 5.97168C25.8337 5.97168 25.4478 6.13152 25.1632 6.41605C24.8787 6.70058 24.7189 7.08648 24.7189 7.48886C24.7189 7.89124 24.8787 8.27714 25.1632 8.56166C25.4478 8.84619 25.8337 9.00603 26.2361 9.00603ZM26.2361 25.9773C26.6384 25.9773 27.0243 25.8175 27.3089 25.5329C27.5934 25.2484 27.7532 24.8625 27.7532 24.4601C27.7532 24.0578 27.5934 23.6719 27.3089 23.3873C27.0243 23.1028 26.6384 22.943 26.2361 22.943C25.8337 22.943 25.4478 23.1028 25.1632 23.3873C24.8787 23.6719 24.7189 24.0578 24.7189 24.4601C24.7189 24.8625 24.8787 25.2484 25.1632 25.5329C25.4478 25.8175 25.8337 25.9773 26.2361 25.9773ZM26.2361 21.5452C26.6384 21.5452 27.0243 21.3854 27.3089 21.1009C27.5934 20.8163 27.7532 20.4304 27.7532 20.0281C27.7532 19.6257 27.5934 19.2398 27.3089 18.9552C27.0243 18.6707 26.6384 18.5109 26.2361 18.5109C25.8337 18.5109 25.4478 18.6707 25.1632 18.9552C24.8787 19.2398 24.7189 19.6257 24.7189 20.0281C24.7189 20.4304 24.8787 20.8163 25.1632 21.1009C25.4478 21.3854 25.8337 21.5452 26.2361 21.5452Z" fill="#4285F4"/>
<path d="M14.2164 25.9774C14.6188 25.9774 15.0047 25.8175 15.2892 25.533C15.5737 25.2485 15.7336 24.8626 15.7336 24.4602C15.7336 24.0578 15.5737 23.6719 15.2892 23.3874C15.0047 23.1029 14.6188 22.943 14.2164 22.943C13.814 22.943 13.4281 23.1029 13.1436 23.3874C12.8591 23.6719 12.6992 24.0578 12.6992 24.4602C12.6992 24.8626 12.8591 25.2485 13.1436 25.533C13.4281 25.8175 13.814 25.9774 14.2164 25.9774ZM14.2164 13.4584C14.6188 13.4584 15.0047 13.2985 15.2892 13.014C15.5737 12.7295 15.7336 12.3436 15.7336 11.9412C15.7336 11.5388 15.5737 11.1529 15.2892 10.8684C15.0047 10.5839 14.6188 10.424 14.2164 10.424C13.814 10.424 13.4281 10.5839 13.1436 10.8684C12.8591 11.1529 12.6992 11.5388 12.6992 11.9412C12.6992 12.3436 12.8591 12.7295 13.1436 13.014C13.4281 13.2985 13.814 13.4584 14.2164 13.4584ZM14.2164 9.00612C14.619 9.00612 15.0051 8.84619 15.2897 8.56152C15.5744 8.27685 15.7343 7.89075 15.7343 7.48817C15.7343 7.08558 15.5744 6.69948 15.2897 6.41481C15.0051 6.13014 14.619 5.97021 14.2164 5.97021C13.8138 5.97021 13.4277 6.13014 13.143 6.41481C12.8584 6.69948 12.6984 7.08558 12.6984 7.48817C12.6984 7.89075 12.8584 8.27685 13.143 8.56152C13.4277 8.84619 13.8138 9.00612 14.2164 9.00612ZM14.2366 21.5453C13.8442 21.5456 13.467 21.3939 13.1841 21.122C12.9012 20.8501 12.7346 20.4792 12.7194 20.0871V16.2941C12.7194 15.8971 12.8771 15.5163 13.1578 15.2356C13.4386 14.9549 13.8194 14.7971 14.2164 14.7971C14.6134 14.7971 14.9942 14.9549 15.2749 15.2356C15.5557 15.5163 15.7134 15.8971 15.7134 16.2941V20.0871C15.703 20.4738 15.5435 20.8415 15.2683 21.1132C14.993 21.385 14.6233 21.5398 14.2366 21.5453Z" fill="#AECBFA"/>
</svg>
