<svg width="345" height="350" viewBox="0 0 345 350" fill="none" xmlns="http://www.w3.org/2000/svg">
<g clip-path="url(#clip0_235_3681)">
<path d="M189.698 336.242L217.781 231.72C218.727 228.184 214.923 225.265 211.757 227.094L118.05 281.226C115.192 282.891 115.356 287.065 118.337 288.504L143.378 300.469C145.742 301.6 146.462 304.602 144.858 306.678L121.133 337.578C119.756 339.387 120.085 341.957 121.894 343.335L128.699 348.557C130.508 349.934 133.078 349.605 134.456 347.796L158.181 316.896C159.764 314.819 162.868 314.737 164.575 316.731L182.605 337.825C184.763 340.333 188.834 339.408 189.698 336.221V336.242Z" fill="black"/>
<path d="M155.302 13.1782L127.219 117.7C126.273 121.236 130.077 124.156 133.243 122.326L226.95 68.1734C229.808 66.5082 229.644 62.3347 226.663 60.8956L201.622 48.9303C199.257 47.7995 198.538 44.7979 200.142 42.7215L223.867 11.8213C225.244 10.0121 224.915 7.44227 223.106 6.06482L216.301 0.842847C214.492 -0.534604 211.922 -0.20566 210.544 1.60353L186.819 32.5037C185.236 34.5801 182.132 34.6623 180.425 32.6681L162.395 11.5746C160.237 9.06643 156.166 9.99158 155.302 13.1782Z" fill="black"/>
<path d="M41.2002 270.371L145.763 242.431C149.299 241.486 149.937 236.736 146.75 234.907L53.001 180.816C50.1433 179.171 46.5866 181.392 46.8539 184.702L49.0126 212.374C49.2182 214.985 46.9772 217.123 44.3662 216.774L5.75652 211.675C3.49503 211.387 1.43913 212.97 1.15131 215.211L0.041124 223.702C-0.246702 225.964 1.33634 228.019 3.57727 228.307L42.187 233.406C44.7774 233.755 46.4016 236.387 45.5175 238.854L36.266 265.005C35.1558 268.13 38.0135 271.214 41.2002 270.35V270.371Z" fill="black"/>
<path d="M303.8 79.0491L199.237 106.989C195.701 107.934 195.063 112.684 198.25 114.513L291.999 168.604C294.857 170.249 298.413 168.028 298.146 164.718L295.987 137.046C295.782 134.435 298.023 132.297 300.634 132.646L339.243 137.745C341.505 138.033 343.561 136.45 343.849 134.209L344.979 125.697C345.267 123.436 343.684 121.38 341.443 121.092L302.834 115.994C300.243 115.644 298.619 113.013 299.503 110.545L308.755 84.3944C309.865 81.2695 307.007 78.1856 303.82 79.0491H303.8Z" fill="black"/>
<path d="M24.0129 108.819L100.472 185.421C103.062 188.012 107.503 186.182 107.503 182.522V74.3001C107.503 70.9901 103.802 69.037 101.068 70.9079L78.1857 86.6149C76.0271 88.0951 73.0666 87.2111 72.0592 84.8057L57.1745 48.807C56.311 46.71 53.9056 45.7026 51.8086 46.5866L43.8728 49.876C41.7758 50.7395 40.7684 53.1449 41.6525 55.2419L56.5372 91.2407C57.5445 93.6666 56.0643 96.3804 53.4944 96.8533L26.2127 101.911C22.9644 102.507 21.7103 106.516 24.054 108.86L24.0129 108.819Z" fill="black"/>
<path d="M237.497 166.918V275.141C237.497 278.451 241.198 280.404 243.932 278.533L266.814 262.826C268.973 261.346 271.933 262.23 272.941 264.635L287.826 300.634C288.689 302.731 291.094 303.738 293.191 302.854L301.127 299.565C303.224 298.701 304.232 296.296 303.348 294.199L288.463 258.2C287.455 255.774 288.936 253.06 291.506 252.588L318.787 247.53C322.036 246.934 323.29 242.925 320.946 240.581L244.487 163.978C241.897 161.388 237.456 163.218 237.456 166.877L237.497 166.918Z" fill="black"/>
</g>
<defs>
<clipPath id="clip0_235_3681">
<rect width="345" height="349.42" fill="white"/>
</clipPath>
</defs>
</svg>
