<svg width="40" height="40" viewBox="0 0 40 40" fill="none" xmlns="http://www.w3.org/2000/svg">
<path d="M21.166 25.7491H26.2991C26.6558 25.7491 26.9474 26.0388 26.9474 26.3939V29.3721C27.5657 29.5218 28.1147 29.8711 28.5065 30.3641C28.8982 30.857 29.1098 31.4649 29.1073 32.0901C29.1073 33.6332 27.8491 34.885 26.2991 34.885C24.7475 34.885 23.4893 33.6332 23.4893 32.0901C23.4893 30.7695 24.4126 29.6617 25.6508 29.3704V27.0386H21.1677V34.669C21.1682 34.7799 21.1396 34.889 21.0847 34.9858C21.0298 35.0827 20.9505 35.1641 20.8544 35.2221L16.3713 37.9074C16.2696 37.9685 16.1525 38.0006 16.0333 38C15.9141 37.9994 15.7974 37.9662 15.6963 37.9042L7.48669 32.8543C7.39196 32.7959 7.31395 32.7148 7.26 32.6186C7.20606 32.5224 7.17797 32.4143 7.17837 32.3045V27.0369L3.0769 24.6969C2.98363 24.6438 2.90506 24.5691 2.84811 24.4792C2.79115 24.3893 2.75755 24.2871 2.75025 24.1815V24.1373V15.7557C2.75025 15.5266 2.87191 15.3139 3.07024 15.1994L7.17837 12.807V7.64254C7.17837 7.43145 7.2817 7.23508 7.45336 7.11562L7.48836 7.09271L15.6996 2.0952C15.8014 2.03298 15.9189 2 16.0388 2C16.1587 2 16.2762 2.03298 16.3779 2.0952L20.8611 4.83614C20.9558 4.89453 21.0338 4.97564 21.0877 5.07184C21.1417 5.16804 21.1698 5.27615 21.1694 5.38597V12.8004H27.5957V9.66347C26.9772 9.51371 26.4279 9.1641 26.0362 8.67083C25.6445 8.17757 25.433 7.5693 25.4358 6.9438C25.4358 5.40069 26.6941 4.14886 28.244 4.14886C29.7956 4.14886 31.0522 5.40069 31.0522 6.9438C31.0522 8.26436 30.1306 9.3722 28.8923 9.66347V13.4452C28.893 13.5293 28.8767 13.6128 28.8445 13.6908C28.8123 13.7687 28.7647 13.8397 28.7044 13.8996C28.6442 13.9595 28.5725 14.0071 28.4935 14.0398C28.4145 14.0724 28.3298 14.0895 28.244 14.0899H21.1694V17.0452H32.2089C32.3506 16.4368 32.6979 15.8933 33.1941 15.5032C33.6904 15.1132 34.3064 14.8994 34.9421 14.8966C36.492 14.8966 37.7503 16.1468 37.7503 17.6899C37.7503 19.233 36.4936 20.4849 34.9421 20.4849C34.3062 20.482 33.6899 20.268 33.1937 19.8776C32.6974 19.4872 32.3503 18.9434 32.2089 18.3347H21.166V21.5043H29.4207L30.9456 23.4353C31.3703 23.1914 31.8535 23.0632 32.3455 23.0638C33.8971 23.0638 35.1537 24.314 35.1537 25.8571C35.1537 27.4002 33.8971 28.6521 32.3455 28.6521C30.7956 28.6521 29.5373 27.4002 29.5373 25.8571C29.5373 25.2909 29.7073 24.764 29.9973 24.3238L28.7907 22.7938H21.166V25.7491ZM16.038 3.40103L12.6331 5.4727V10.3295H11.3365V6.26143L8.47498 8.00418V12.8233L11.9915 15.0488L15.603 12.8168V9.09237H16.8996V13.1768C16.8996 13.3993 16.7829 13.6072 16.5929 13.725L12.6881 16.1354V19.5407L15.058 21.1918L14.3147 22.2489L11.9715 20.6158L9.4216 22.2603L8.71663 21.1803L11.3915 19.454V16.1975L7.81334 13.9295L4.04686 16.1223V18.8649L7.33337 16.9192L7.99667 18.027L4.04686 20.3654V23.7642L7.65668 25.8228L11.4398 23.5842L12.1015 24.692L8.47498 26.8373V31.9461L11.6015 33.8688L15.543 31.5354L16.2063 32.6448L12.8448 34.6347L16.0413 36.6L19.8711 34.3041V24.8458L11.9415 29.5799L11.2748 28.4753L19.8711 23.3436V5.74597L16.038 3.40103ZM26.2991 30.5879C26.099 30.589 25.9011 30.6288 25.7167 30.7051C25.5323 30.7813 25.365 30.8926 25.2245 31.0324C25.0839 31.1723 24.9728 31.338 24.8975 31.52C24.8223 31.7021 24.7843 31.8969 24.7859 32.0934C24.7859 32.923 25.4625 33.5956 26.2991 33.5956C26.4989 33.5943 26.6966 33.5544 26.8807 33.4781C27.0648 33.4018 27.2318 33.2907 27.3721 33.1511C27.5125 33.0114 27.6235 32.846 27.6987 32.6642C27.774 32.4825 27.812 32.2879 27.8107 32.0917C27.8123 31.8954 27.7744 31.7007 27.6992 31.5187C27.6241 31.3368 27.5131 31.1712 27.3727 31.0314C27.2323 30.8915 27.0653 30.7803 26.8811 30.7039C26.6968 30.6275 26.4991 30.5892 26.2991 30.5879ZM32.3488 24.3533C32.1487 24.3544 31.9508 24.3942 31.7664 24.4704C31.582 24.5467 31.4147 24.658 31.2742 24.7978C31.1336 24.9376 31.0225 25.1033 30.9473 25.2854C30.872 25.4674 30.834 25.6623 30.8356 25.8588C30.8356 26.69 31.5122 27.3642 32.3472 27.3642C32.5473 27.3632 32.7452 27.3233 32.9296 27.2471C33.114 27.1708 33.2813 27.0595 33.4219 26.9197C33.5624 26.7799 33.6735 26.6142 33.7488 26.4321C33.824 26.2501 33.862 26.0552 33.8604 25.8588C33.862 25.6623 33.824 25.4674 33.7488 25.2854C33.6735 25.1033 33.5624 24.9376 33.4219 24.7978C33.2813 24.658 33.114 24.5467 32.9296 24.4704C32.7452 24.3942 32.5489 24.3544 32.3488 24.3533ZM34.9404 16.1877C34.7403 16.1888 34.5424 16.2286 34.358 16.3049C34.1735 16.3812 34.0063 16.4924 33.8657 16.6323C33.7251 16.7721 33.614 16.9378 33.5388 17.1198C33.4635 17.3019 33.4256 17.4967 33.4271 17.6932C33.4271 18.5229 34.1054 19.1954 34.9404 19.1954C35.1402 19.1941 35.3378 19.1542 35.5219 19.0779C35.706 19.0017 35.873 18.8905 36.0134 18.7509C36.1538 18.6112 36.2647 18.4458 36.34 18.2641C36.4152 18.0823 36.4533 17.8878 36.452 17.6916C36.4535 17.4952 36.4156 17.3005 36.3405 17.1186C36.2653 16.9366 36.1544 16.771 36.014 16.6312C35.8736 16.4914 35.7065 16.3801 35.5223 16.3037C35.3381 16.2274 35.1404 16.1874 34.9404 16.1861V16.1877ZM28.2424 5.4367C28.0424 5.43798 27.8447 5.47795 27.6604 5.55433C27.4762 5.6307 27.3092 5.74198 27.1688 5.88179C27.0284 6.02161 26.9174 6.18723 26.8423 6.36918C26.7671 6.55112 26.7292 6.74583 26.7308 6.94217C26.7308 7.77345 27.4074 8.44764 28.2424 8.44764C28.4425 8.44657 28.6404 8.40676 28.8248 8.33048C29.0092 8.2542 29.1765 8.14296 29.3171 8.00312C29.4576 7.86328 29.5687 7.69759 29.644 7.51553C29.7192 7.33348 29.7572 7.13864 29.7556 6.94217C29.7572 6.7457 29.7192 6.55085 29.644 6.3688C29.5687 6.18675 29.4576 6.02106 29.3171 5.88122C29.1765 5.74138 29.0092 5.63013 28.8248 5.55386C28.6404 5.47758 28.4425 5.43777 28.2424 5.4367Z" fill="url(#paint0_linear_2_213)"/>
<defs>
<linearGradient id="paint0_linear_2_213" x1="2802.75" y1="722" x2="643.607" y2="2821.17" gradientUnits="userSpaceOnUse">
<stop stop-color="#6350FB"/>
<stop offset="0.5" stop-color="#3D8FFF"/>
<stop offset="1" stop-color="#9AD8F8"/>
</linearGradient>
</defs>
</svg>
