<svg width="40" height="40" viewBox="0 0 40 40" fill="none" xmlns="http://www.w3.org/2000/svg">
<path d="M35.6353 16.7316C36.0434 15.5194 36.1845 14.2353 36.0493 12.965C35.914 11.6947 35.5056 10.4675 34.8511 9.36539C33.8809 7.69953 32.3994 6.38063 30.6203 5.59884C28.8412 4.81704 26.8563 4.61275 24.9519 5.0154C23.87 3.82825 22.4904 2.94282 20.9517 2.44803C19.4131 1.95324 17.7695 1.86652 16.1862 2.19658C14.6028 2.52664 13.1353 3.26185 11.9312 4.32838C10.727 5.39491 9.82856 6.75521 9.32603 8.27264C8.05729 8.52928 6.85869 9.05007 5.81034 9.80023C4.76199 10.5504 3.88803 11.5126 3.24688 12.6226C2.2661 14.2857 1.84693 16.2134 2.04995 18.1269C2.25297 20.0405 3.06768 21.8408 4.37627 23.2675C3.96671 24.4791 3.82416 25.763 3.95817 27.0333C4.09218 28.3036 4.49965 29.5311 5.15333 30.6335C6.12479 32.3 7.60756 33.6192 9.38794 34.401C11.1683 35.1828 13.1544 35.3868 15.0598 34.9837C15.9194 35.9385 16.9756 36.7014 18.1579 37.2216C19.3402 37.7417 20.6214 38.007 21.9159 37.9999C23.8679 38.0016 25.7699 37.3915 27.3475 36.2576C28.9251 35.1237 30.0966 33.5246 30.6929 31.6912C31.9614 31.4341 33.1599 30.9131 34.2082 30.163C35.2564 29.4128 36.1305 28.4508 36.772 27.341C37.7412 25.6804 38.1532 23.76 37.949 21.8544C37.7448 19.9489 36.935 18.1557 35.6353 16.7316ZM21.9159 35.6437C20.3173 35.6462 18.7687 35.0935 17.5419 34.0825L17.7576 33.9619L25.0238 29.8246C25.2047 29.72 25.3548 29.5707 25.4595 29.3916C25.5642 29.2124 25.6199 29.0094 25.621 28.8026V18.6973L28.6927 20.4502C28.7079 20.4578 28.7211 20.4688 28.7311 20.4824C28.7411 20.4959 28.7478 20.5116 28.7505 20.5282V28.9021C28.7467 30.6889 28.0253 32.4015 26.7444 33.665C25.4635 34.9284 23.7274 35.6399 21.9159 35.6437ZM7.22523 29.4556C6.4235 28.09 6.13564 26.4893 6.41229 24.935L6.62822 25.0628L13.9016 29.2001C14.0815 29.3043 14.2864 29.3592 14.4951 29.3592C14.7037 29.3592 14.9086 29.3043 15.0886 29.2001L23.9735 24.1474V27.646C23.9727 27.6641 23.9677 27.6818 23.959 27.6978C23.9502 27.7138 23.9379 27.7276 23.923 27.7382L16.5633 31.9252C14.9927 32.8177 13.1271 33.0589 11.3764 32.5959C9.62556 32.1329 8.13259 31.0034 7.22523 29.4556ZM5.31163 13.8433C6.11893 12.469 7.39316 11.4207 8.90876 10.8841V19.3999C8.90602 19.6056 8.95932 19.8083 9.06307 19.9868C9.16683 20.1653 9.31724 20.3131 9.49862 20.4147L18.3404 25.4461L15.2685 27.1988C15.2518 27.2075 15.2333 27.2121 15.2145 27.2121C15.1957 27.2121 15.1771 27.2075 15.1605 27.1988L7.81525 23.0191C6.24754 22.1227 5.10383 20.6501 4.63458 18.9236C4.16533 17.1972 4.40879 15.3577 5.31163 13.8079V13.8433ZM30.549 19.627L21.6785 14.5459L24.7433 12.7999C24.7599 12.7912 24.7784 12.7867 24.7972 12.7867C24.8161 12.7867 24.8346 12.7912 24.8512 12.7999L32.1965 16.9869C33.3196 17.6261 34.2351 18.5673 34.8363 19.7005C35.4375 20.8338 35.6994 22.1123 35.5915 23.3869C35.4837 24.6615 35.0105 25.8795 34.2271 26.8988C33.4438 27.918 32.3827 28.6964 31.1678 29.1431V20.6274C31.1614 20.422 31.101 20.2218 30.9925 20.0463C30.884 19.8709 30.7312 19.7265 30.549 19.627ZM33.6066 15.0924L33.3907 14.9646L26.1318 10.7919C25.9507 10.6871 25.7446 10.6318 25.5346 10.6318C25.3247 10.6318 25.1185 10.6871 24.9375 10.7919L16.06 15.8445V12.346C16.0581 12.3282 16.0611 12.3103 16.0687 12.294C16.0763 12.2778 16.0882 12.2639 16.1032 12.2538L23.4484 8.0739C24.5742 7.43417 25.8613 7.12385 27.1593 7.17923C28.4573 7.23461 29.7125 7.6534 30.7781 8.38662C31.8436 9.11983 32.6755 10.1372 33.1764 11.3196C33.6774 12.5021 33.8266 13.8008 33.6067 15.0639L33.6066 15.0924ZM14.3834 21.2944L11.3117 19.5487C11.2963 19.5396 11.2832 19.5272 11.2732 19.5125C11.2632 19.4978 11.2566 19.4812 11.2539 19.4637V11.1112C11.2556 9.8299 11.6271 8.57552 12.3249 7.49475C13.0226 6.41397 14.0179 5.55148 15.1943 5.00811C16.3707 4.46474 17.6797 4.26295 18.968 4.42632C20.2564 4.5897 21.471 5.1115 22.4699 5.9307L22.2539 6.05145L14.9879 10.1884C14.8071 10.2931 14.6569 10.4423 14.5522 10.6215C14.4475 10.8006 14.3919 11.0036 14.3907 11.2104L14.3834 21.2944ZM16.0525 17.7463L20.0093 15.4966L23.9735 17.7463V22.2454L20.0237 24.4949L16.0598 22.2454L16.0525 17.7463Z" fill="black"/>
</svg>
