<svg width="40" height="40" viewBox="0 0 40 40" fill="none" xmlns="http://www.w3.org/2000/svg">
<path d="M32.0769 37.1077H8.15233C5.37245 37.1077 3.12088 34.8561 3.12088 32.0762V8.15168C3.12088 5.37181 5.37245 3.12024 8.15233 3.12024H32.0894C34.8693 3.12024 37.1209 5.37181 37.1209 8.15168V32.0888C37.1083 34.8561 34.8567 37.1077 32.0769 37.1077Z" fill="#2D2D2D"/>
<path d="M20.7058 10.1768L19.0706 12.5038C18.819 12.8686 18.3913 13.095 17.9385 13.095H9.00767V10.1642C8.99509 10.1768 20.7058 10.1768 20.7058 10.1768Z" fill="white"/>
<path d="M31.8127 10.1768L17.775 30.0635H8.41647L22.4542 10.1768H31.8127Z" fill="white"/>
<path d="M19.5234 30.0636L21.1712 27.724C21.4228 27.3592 21.8504 27.1328 22.3033 27.1328H31.2215V30.0636H19.5234Z" fill="white"/>
</svg>
